<svg xmlns="http://www.w3.org/2000/svg" id="Layer_1" x="0" y="0" version="1.1" viewBox="0 0 52 52" xml:space="preserve"><path d="M36.048 45.57A21.763 21.763 0 0 1 26 48c-7.864 0-15.183-4.249-19.099-11.087a1 1 0 0 0-1.736.994C9.437 45.367 17.42 50 26 50a23.73 23.73 0 0 0 10.962-2.652 1 1 0 0 0-.914-1.778zM26 4c.13 0 .26.004.39.009l.209.006a.986.986 0 0 0 1.025-.973 1 1 0 0 0-.975-1.026l-.193-.006C26.305 2.005 26.152 2 26 2 12.767 2 2 12.766 2 26c0 .858.05 1.744.146 2.63a1 1 0 0 0 1.989-.217A22.129 22.129 0 0 1 4 26C4 13.87 13.87 4 26 4zM35.834 4.108a1 1 0 1 0-.82 1.824C42.902 9.483 48 17.36 48 26a22.002 22.002 0 0 1-5.247 14.251 1.001 1.001 0 0 0 1.523 1.297A24.01 24.01 0 0 0 50 26c0-9.427-5.56-18.02-14.166-21.892z"/><path fill="#3c93c9" d="M26.768 10.844c-.38-.45-1.15-.45-1.53 0-.41.48-9.95 11.86-9.95 17.84 0 6.23 4.81 11.29 10.71 11.29 5.91 0 10.72-5.06 10.72-11.29 0-5.98-9.55-17.36-9.95-17.84zm-.65 24.03c-.15.4-.53.66-.94.66a.83.83 0 0 1-.34-.07c-4.47-1.63-5.4-5.31-5.26-7.02a.997.997 0 1 1 1.99.15c-.01.16-.16 3.49 3.96 5 .52.19.78.76.59 1.28z"/></svg>