<svg xmlns="http://www.w3.org/2000/svg" viewBox="0 0 64 64"><path d="M32.77 2.363a1.033 1.033 0 0 0-1.54 0C30.362 3.41 10 28.178 10 40a22 22 0 0 0 44 0C54 28.178 33.638 3.411 32.77 2.363ZM32 60a20.023 20.023 0 0 1-20-20c0-9.87 16.237-30.713 20-35.41C35.763 9.286 52 30.13 52 40a20.023 20.023 0 0 1-20 20Z"/><path d="M26 38a4 4 0 1 1 4-4 4.004 4.004 0 0 1-4 4Zm0-6a2 2 0 1 0 2 2 2.002 2.002 0 0 0-2-2Z"/><path d="M32 22a18 18 0 1 0 18 18 18.02 18.02 0 0 0-18-18Zm-4.293 23.707a1.023 1.023 0 0 1-1.414 0 .999.999 0 0 1 0-1.414l10-10a1 1 0 1 1 1.414 1.414ZM38 50a4 4 0 1 1 4-4 4.004 4.004 0 0 1-4 4Zm3.332-12a18.907 18.907 0 0 0-3.38.29l1.169-1.168a3 3 0 0 0-4.242-4.243l-10 10a3 3 0 0 0-.645.96 19.962 19.962 0 0 1-2.57.161 16.952 16.952 0 0 1-5.336-.769 15.991 15.991 0 1 1 31.635-3.97A15.975 15.975 0 0 0 41.333 38Z"/><circle cx="38" cy="46" r="2"/></svg>