<svg width="18" height="20" viewBox="0 0 18 20" fill="none" xmlns="http://www.w3.org/2000/svg">
<path d="M0.499791 11.9124V11.7079C0.534707 11.0531 0.741363 10.4187 1.09925 9.86772C1.69601 9.19909 2.10626 8.38691 2.28922 7.51192C2.33396 6.84518 2.28922 6.16066 2.33396 5.48503C2.65606 2.24024 5.86809 0 8.94591 0H9.03538C12.1669 0 15.2984 2.24024 15.6384 5.48503C15.701 6.15177 15.6384 6.84518 15.6921 7.51192C15.8706 8.38844 16.2814 9.20171 16.882 9.86772C17.2555 10.4124 17.4692 11.0495 17.4995 11.7079V11.9124C17.5049 12.7993 17.1871 13.6582 16.6047 14.3304C15.8575 15.1274 14.8419 15.624 13.7505 15.7261C10.5637 16.135 7.3371 16.135 4.15023 15.7261C3.07158 15.6157 2.07004 15.1197 1.33188 14.3304C0.767738 13.6518 0.47191 12.7921 0.499791 11.9124Z" fill="#200E32"/>
<path opacity="0.4" d="M10.1627 17.0952C9.52749 17.0507 9.00856 17.0952 8.48962 17.0952C7.97497 17.0863 7.46116 17.14 6.95966 17.2552C6.53019 17.353 6.06494 17.5841 6.06494 18.073C6.11 18.5456 6.36618 18.9731 6.76282 19.2376C7.52687 19.8211 8.48972 20.0858 9.44697 19.9755C10.3775 19.9069 11.2279 19.4273 11.7643 18.6687C12.0607 18.2843 11.9931 17.735 11.6122 17.433C11.1611 17.2125 10.6654 17.097 10.1627 17.0952Z" fill="#200E32"/>
</svg>
